<?xml version="1.0" standalone="no"?><!DOCTYPE svg PUBLIC "-//W3C//DTD SVG 1.1//EN" "http://www.w3.org/Graphics/SVG/1.1/DTD/svg11.dtd"><svg t="1533199805242" class="icon" style="" viewBox="0 0 1024 1024" version="1.1" xmlns="http://www.w3.org/2000/svg" p-id="2166" xmlns:xlink="http://www.w3.org/1999/xlink" width="200" height="200"><defs><style type="text/css"></style></defs><path d="M611.346 61.725c19.934 0 38.947 8.154 52.543 21.748 13.57 13.597 21.748 32.61 21.748 53.438s-8.177 38.974-21.748 52.544c-13.596 13.57-32.635 22.668-52.543 22.668-21.063-0.205-40.049-8.94-53.699-22.908-13.36-13.33-21.488-31.474-21.488-52.304s8.129-39.868 21.724-53.438c13.598-13.445 32.3-21.749 52.943-21.749l0.549 0.002z m19.015 56.172c-4.762-5.04-11.489-8.177-18.95-8.177h-0.067c-8.124 0-14.487 2.734-19.011 8.177-5.467 4.523-8.203 11.781-8.203 19.013 0 7.258 2.734 14.491 7.282 19.04 5.444 4.549 11.808 8.153 19.935 8.153 7.258 0 13.57-3.629 19.013-8.153 4.523-4.549 7.258-11.781 7.258-19.04 0-7.233-2.759-14.491-7.258-19.013zM903.07 579.929c20.829 0 39.868 9.072 53.438 22.643 13.57 12.701 21.724 31.715 21.724 52.544 0 20.854-8.154 39.868-21.724 52.544-13.721 13.9-32.738 22.542-53.776 22.645-20.515-0.002-38.635-9.05-52.206-22.645-13.946-13.213-22.625-31.865-22.625-52.544s8.679-39.332 22.592-52.514c13.603-13.575 31.747-22.672 52.576-22.672z m19.015 56.173a28.316 28.316 0 0 0-19.443-8.138c-7.157 0.241-13.961 3.42-18.907 8.433-4.666 4.718-7.77 11.581-7.89 19.167 0.011 6.859 3.638 14.091 8.188 18.615 4.523 4.549 11.757 8.177 19.039 8.177 7.233 0 14.467-3.629 19.015-8.177 5.443-4.523 8.153-11.757 8.153-19.04 0-7.233-2.709-14.466-8.153-19.039zM218.139 220.276c20.828 0 38.974 8.153 52.544 21.748 13.57 13.569 21.748 32.635 21.748 53.463s-8.177 38.947-21.748 52.543c-13.57 13.572-31.715 22.644-52.544 22.644s-39.868-9.047-53.465-22.644c-13.57-13.596-21.748-31.714-21.748-52.543s8.177-39.868 21.748-53.465c13.609-13.445 32.321-21.749 52.974-21.749l0.516 0.001z m19.013 56.147c-5.443-5.444-11.757-8.154-19.013-8.154s-14.491 2.709-19.013 8.154c-5.443 4.523-8.177 11.78-8.177 19.039 0 7.233 2.734 14.491 8.177 19.013 4.523 4.525 11.757 8.154 19.013 8.154s13.57-3.629 19.013-8.154c4.525-4.523 8.177-11.78 8.177-19.013 0-7.233-3.629-14.491-8.177-19.039z m-88.782 357.89c20.828 0 38.973 8.127 52.543 21.724 13.597 13.62 22.668 32.635 22.668 53.463s-9.047 38.924-22.668 52.544c-13.57 13.596-31.714 22.643-52.543 22.643s-39.868-9.047-53.438-22.643c-13.431-13.279-21.749-31.708-21.749-52.078l0.001-0.492c0-20.828 8.153-39.843 21.748-53.437 13.586-13.43 32.274-21.726 52.899-21.726l0.569 0.002z m19.038 56.171c-4.523-5.443-11.78-8.127-19.039-8.127-7.233 0-14.491 2.684-19.015 8.127-5.443 4.523-8.153 11.807-8.153 19.04s2.709 13.596 8.153 19.013c4.525 4.573 11.781 8.153 19.015 8.153 7.258 0 14.514-3.604 19.039-8.153 4.525-4.499 8.154-11.781 8.154-19.013s-3.629-14.541-8.154-19.04zM534.32 811.851c20.828 0 38.924 9.046 52.544 22.667 13.596 13.597 21.748 31.691 21.748 52.544 0 20.828-8.154 39.868-21.748 53.438-13.279 13.431-31.708 21.749-52.078 21.749l-0.492-0.001c-20.803 0-39.843-8.153-53.413-21.748s-21.748-32.635-21.748-53.438c0-20.854 8.153-38.947 21.748-52.544 13.716-13.913 32.738-22.563 53.781-22.669z m19.039 56.197c-5.443-4.549-11.807-8.153-19.04-8.153-8.153 0-14.491 3.629-19.013 8.153-5.443 4.523-8.177 11.781-8.177 19.04 0 7.233 2.734 14.491 8.177 19.013 4.523 5.467 10.862 8.153 19.013 8.153 7.233 0 13.597-2.684 19.04-8.153 4.523-4.523 8.153-11.781 8.153-19.013 0-7.258-3.629-14.514-8.153-19.04z" fill="" p-id="2167"></path><path d="M598.645 885.276c-10.886 7.233-25.377 3.629-32.635-7.233s-4.523-26.321 7.233-32.635l259.116-166.704c10.886-7.233 26.321-4.547 32.635 7.233 2.526 3.62 4.035 8.112 4.035 12.957 0 8.343-4.479 15.641-11.164 19.621L598.646 885.279zM278.834 311.767c-12.676 5.443-26.271-0.894-31.714-12.676s0-26.271 11.78-31.714l282.654-124.126c2.846-1.298 6.174-2.055 9.678-2.055 9.875 0 18.347 6.012 21.953 14.576 4.63 11.937-0.837 26.429-12.594 31.846l-281.756 124.15z m-93.307 350.656c-1.789 12.651-14.491 21.698-27.166 19.934-12.702-1.814-22.668-13.62-20.829-26.321l41.682-305.295c1.623-11.685 11.548-20.583 23.551-20.583 13.124 0 23.763 10.639 23.763 23.763 0 1.122-0.078 2.225-0.228 3.307l-40.773 305.196z m378.719 159.421c-0.921 13.596-12.726 22.643-26.271 21.748-11.861-1.077-21.083-10.975-21.083-23.025 0-1.146 0.084-2.272 0.243-3.373l57.973-619.588c0.894-12.675 12.676-22.643 25.377-20.828 13.57 0.895 22.643 12.676 21.748 25.377l-57.987 619.69z" fill="" p-id="2168"></path><path d="M923.004 588.131c2.535 3.687 4.049 8.247 4.049 13.162 0 8.085-4.098 15.213-10.33 19.42-10.97 7.286-26.354 4.553-33.587-6.334L616.739 208.496c-7.233-10.886-4.525-26.272 6.364-33.504 10.886-7.258 26.271-3.629 33.504 7.233l266.397 405.907zM526.167 812.798c1.817 3.346 2.886 7.326 2.886 11.556 0 8.905-4.735 16.705-11.825 21.015a24.356 24.356 0 0 1-11.647 2.937c-8.901 0-16.697-4.731-21.01-11.814L226.288 372.487c-6.314-10.886-1.789-26.272 9.991-32.635 10.862-6.338 25.377-1.815 32.61 9.966l257.277 462.977z" fill="" p-id="2169"></path><path d="M850.528 610.775c11.78 6.337 15.385 20.852 9.942 32.61-4.111 7.675-12.074 12.805-21.236 12.805a23.89 23.89 0 0 1-11.5-2.928L254.377 347.111c-7.682-4.121-12.819-12.098-12.819-21.273 0-4.161 1.056-8.075 2.914-11.488 4.298-7.081 12.094-11.823 20.996-11.823 4.238 0 8.225 1.075 11.703 2.966l573.355 305.282zM488.139 845.407c11.781 5.42 17.225 19.935 10.886 31.692-5.443 11.807-19.934 16.279-31.714 10.886l-276.34-136.803c-8.027-3.755-13.488-11.763-13.488-21.046 0-3.898 0.962-7.571 2.662-10.794 5.382-11.655 19.899-16.155 31.655-10.759L488.139 845.41z" fill="" p-id="2170"></path><path d="M214.533 681.413c-4.455 5.387-11.139 8.791-18.619 8.791a24.011 24.011 0 0 1-14.961-5.202c-9.918-8.114-11.731-23.5-3.58-33.466l372.354-469.34c8.129-9.968 22.618-11.757 33.506-3.629 9.966 8.177 11.78 23.563 3.629 33.53l-372.33 469.315z" fill="" p-id="2171"></path><path d="M841.479 656.036c13.57-0.895 24.433 9.966 24.433 23.563l0.001 0.201c0 12.903-10.461 23.363-23.363 23.363l-0.185-0.001-644.161 12.675c-13.597 0-24.457-9.966-24.457-23.537 0-12.701 9.966-23.563 23.537-24.457l644.195-11.807z" fill="" p-id="2172"></path></svg>