<?xml version="1.0" standalone="no"?><!DOCTYPE svg PUBLIC "-//W3C//DTD SVG 1.1//EN" "http://www.w3.org/Graphics/SVG/1.1/DTD/svg11.dtd"><svg t="1533199832001" class="icon" style="" viewBox="0 0 1024 1024" version="1.1" xmlns="http://www.w3.org/2000/svg" p-id="2397" xmlns:xlink="http://www.w3.org/1999/xlink" width="200" height="200"><defs><style type="text/css"></style></defs><path d="M512.004 581.361c-24.625 0-48.539-5.033-71.076-14.961l-1.387-0.658L108.42 396.801c-25.313-13.028-39.746-33.048-39.685-54.97 0.061-21.876 14.543-41.758 39.733-54.547l331.691-169.221 0.633-0.283c22.553-10.083 46.512-15.194 71.212-15.194 24.702 0 48.659 5.112 71.207 15.195l1.248 0.597 331.121 168.93c25.159 12.755 39.658 32.64 39.72 54.522 0.061 21.929-14.391 41.952-39.647 54.934L583.776 566.091l-0.701 0.309c-22.532 9.928-46.444 14.961-71.071 14.961z m-48.639-64.086c15.439 6.693 31.8 10.086 48.639 10.086 16.84 0 33.197-3.393 48.631-10.086L891.039 348.7c5.445-2.799 8.177-5.255 9.46-6.704-1.286-1.422-4.007-3.821-9.398-6.555l-330.535-168.63c-15.392-6.785-31.727-10.224-48.562-10.224s-33.172 3.439-48.57 10.225L132.961 335.41c-5.426 2.755-8.152 5.164-9.434 6.585 1.28 1.45 4.022 3.919 9.52 6.749l330.318 168.531z" p-id="2398"></path><path d="M512.005 761.686c-24.245 0-48.49-4.974-71.077-14.923l-1.387-0.658-331.12-168.929C83.188 564.366 68.693 544.393 68.7 522.4c0.006-21.974 14.488-41.922 39.735-54.737a22325.19 22325.19 0 0 1 63.486-32.371c13.294-6.753 29.547-1.453 36.301 11.842 6.754 13.294 1.452 29.547-11.842 36.301-36.98 18.788-63.114 32.181-63.374 32.313l-0.106 0.055c-5.45 2.763-8.166 5.191-9.43 6.613 1.265 1.425 3.982 3.86 9.443 6.633l330.449 168.586c30.96 13.416 66.325 13.415 97.274 0.001l330.402-168.563c5.494-2.789 8.223-5.231 9.489-6.658-1.264-1.422-3.979-3.85-9.428-6.612l-2.771-1.405-2.379-1.997c-0.155-0.13-19.431-16.089-47.675-30.521-13.278-6.785-18.542-23.05-11.757-36.329 6.786-13.28 23.053-18.542 36.328-11.757 28.065 14.341 48.558 29.85 55.385 35.271 23.598 12.842 37.063 32.147 37.068 53.335 0.006 21.991-14.488 41.965-39.768 54.8L583.775 746.453l-0.701 0.309c-22.581 9.949-46.825 14.924-71.069 14.924z" p-id="2399"></path><path d="M512.004 942.223a174.656 174.656 0 0 1-71.2-15.152l-1.263-0.604-331.12-168.931c-25.178-12.781-39.673-32.68-39.721-54.567-0.048-21.925 14.408-41.933 39.663-54.895 0.265-0.136 26.481-13.583 63.558-32.419 13.294-6.754 29.547-1.453 36.301 11.842 6.754 13.294 1.452 29.547-11.842 36.301-36.975 18.785-63.105 32.188-63.365 32.321-5.48 2.813-8.225 5.271-9.513 6.72 1.287 1.425 4.011 3.83 9.411 6.571l330.511 168.619c30.914 13.599 66.246 13.599 97.15 0.002l330.465-168.597c5.433-2.758 8.168-5.17 9.458-6.597-1.288-1.449-4.034-3.908-9.516-6.722l-2.367-1.214-2.084-1.653c-0.163-0.128-19.651-15.403-48.255-30.019-13.278-6.785-18.542-23.05-11.757-36.328 6.786-13.279 23.053-18.54 36.328-11.758 28.197 14.408 48.663 29.275 55.115 34.159 23.816 12.979 37.385 32.422 37.338 53.665-0.049 21.888-14.543 41.786-39.768 54.592L583.836 926.784l-0.638 0.285a174.59 174.59 0 0 1-71.194 15.154z" p-id="2400"></path></svg>