<?xml version="1.0" standalone="no"?><!DOCTYPE svg PUBLIC "-//W3C//DTD SVG 1.1//EN" "http://www.w3.org/Graphics/SVG/1.1/DTD/svg11.dtd"><svg t="1533199815561" class="icon" style="" viewBox="0 0 1024 1024" version="1.1" xmlns="http://www.w3.org/2000/svg" p-id="2283" xmlns:xlink="http://www.w3.org/1999/xlink" width="200" height="200"><defs><style type="text/css"></style></defs><path d="M602.4 773H535v-44.8h67.4c12.4 0 22.4-10 22.4-22.4 0-12.4-10-22.4-22.4-22.4h-46L600 603c5.6-10.2 2.2-23.2-7.4-29.2-9.6-5.8-21.8-2.4-27.4 7.8l-50 92.4c-1.6 3-2.4 6.2-2.6 9.4h-0.2c-0.2-3.2-1-6.4-2.6-9.4l-49.4-92.2c-5.4-10.2-17.6-13.6-27-7.8-9.4 5.8-12.8 19-7.2 29.2l43 80.4h-46c-12.4 0-22.4 10-22.4 22.4 0 12.4 10 22.4 22.4 22.4h67.4v44.8h-67.4c-12.4 0-22.4 10-22.4 22.4 0 12.4 10 22.4 22.4 22.4h67.4v47c0 11.2 10 20.2 22.4 20.2 12.4 0 22.4-9 22.4-20.2v-47h67.4c12.4 0 22.4-10 22.4-22.4-0.2-12.6-10.4-22.6-22.8-22.6z" p-id="2284"></path><path d="M888.4 312.4c-1 0-2-0.2-3-0.2-4.4 0-8.8 0.8-13 2.6l-78.6 31.6V239c0-17.4-14.2-31.6-31.6-31.6h-43L601 15.4C591.8 0.6 572.2-4.2 557.4 5L152.8 253.6c-14.8 9.2-19.6 28.8-10.4 43.6l11.4 18.6-2.4-1c-5.2-2-10.6-2.8-15.8-2.4-39 3.6-69.6 36-69.6 73.8v563.6c0 40.8 34.6 74.2 77 74.2h738c42.4 0 77-33.2 77-74.2V386.2c0-37.8-30.6-70.2-69.6-73.8zM563.6 75.2L644.8 207H349.2L563.6 75.2zM319 270.6h411.4v101l-186.8 74.8c-20.4 8.2-43 8.2-63.4 0l-161.4-64.6V270.6z m-63.4-5.8v91.6l-3-1.2-39.6-64.4 42.6-26z m639 685c0 5.8-6.4 10.8-13.6 10.8H143c-7.2 0-13.6-5-13.6-10.8V386.2c0-3.8 2.8-7.4 6.8-9.2l320.4 128.2c17.6 7 36.2 10.6 55.2 10.6h0.2c19 0 37.6-3.6 55.2-10.6L887.6 377c4 2 6.8 5.6 6.8 9.2v563.6z" p-id="2285"></path><path d="M654.4 355.8c0-13.8-11.2-25.2-25.2-25.2h-209c-13.8 0-25.2 11.2-25.2 25.2s11.2 25.2 25.2 25.2h209c14 0 25.2-11.2 25.2-25.2z" p-id="2286"></path></svg>