<?xml version="1.0" standalone="no"?><!DOCTYPE svg PUBLIC "-//W3C//DTD SVG 1.1//EN" "http://www.w3.org/Graphics/SVG/1.1/DTD/svg11.dtd"><svg t="1533199780266" class="icon" style="" viewBox="0 0 1024 1024" version="1.1" xmlns="http://www.w3.org/2000/svg" p-id="1791" xmlns:xlink="http://www.w3.org/1999/xlink" width="200" height="200"><defs><style type="text/css"></style></defs><path d="M982.6 444c-3.3-7-10.3-11.4-18-11.4h-58.9C868.3 229.5 690 75.2 476.3 75.2c-240.8 0-436.8 196-436.8 436.8s196 436.8 436.8 436.8c155.4 0 300.4-83.7 378.3-218.3 11-19 4.5-43.3-14.5-54.3s-43.3-4.5-54.2 14.5c-63.8 110.2-182.4 178.7-309.6 178.7-197.1 0-357.4-160.3-357.4-357.4 0-197.1 160.3-357.4 357.4-357.4 169.7 0 311.9 119 348.2 278h-58.4c-7.7 0-14.7 4.5-18 11.4-3.3 7-2.2 15.2 2.7 21.1l99.3 119.1c3.8 4.5 9.3 7.1 15.3 7.1 5.9 0 11.5-2.6 15.2-7.1l99.3-119.1c4.9-5.9 6-14.1 2.7-21.1z" p-id="1792"></path><path d="M476.3 174.5c-21.9 0-39.7 17.8-39.7 39.7v241c-18 12.6-29.8 33.3-29.8 56.9 0 38.3 31.2 69.5 69.5 69.5 10.5 0 20.4-2.5 29.3-6.7l138.1 79.7c6.3 3.6 13.1 5.3 19.8 5.3 13.7 0 27.1-7.1 34.4-19.9 11-19 4.5-43.3-14.6-54.2L545.2 506c-1.8-21-12.8-39.3-29.1-50.8v-241c-0.1-21.9-17.9-39.7-39.8-39.7z m0 367.3c-16.4 0-29.8-13.4-29.8-29.8s13.4-29.8 29.8-29.8 29.8 13.4 29.8 29.8-13.4 29.8-29.8 29.8z" p-id="1793"></path></svg>